<?xml version="1.0" encoding="UTF-8"?><svg id="uuid-dc632bc4-18eb-4f1f-8a38-b01decb71fc1" xmlns="http://www.w3.org/2000/svg" viewBox="0 0 173.3 73.75"><defs><style>.uuid-f3b162ba-3152-42a3-a071-a84db2a85d1c{fill:#1d1645;}</style></defs><path class="uuid-f3b162ba-3152-42a3-a071-a84db2a85d1c" d="M6.31,4.18c-1.16,1.1-1.74,2.43-1.74,4.01v57.6c0,1.58.58,2.91,1.74,4.01,1.13,1.13,2.51,1.69,4.13,1.69s3-.57,4.13-1.69c1.16-1.09,1.74-2.43,1.74-4.01V8.19c0-1.58-.58-2.91-1.74-4.01-1.13-1.13-2.51-1.69-4.13-1.69s-3,.56-4.13,1.69"/><path class="uuid-f3b162ba-3152-42a3-a071-a84db2a85d1c" d="M114.71,2.59c-1.19.39-2.16,1.08-2.88,2.08-.73.96-1.1,2.06-1.1,3.28v57.85c0,1.58.58,2.91,1.74,4.01,1.13,1.13,2.5,1.69,4.13,1.69s3-.57,4.13-1.69c1.16-1.09,1.74-2.43,1.74-4.01V24.61l35.77,44.67v.05h.05c.1.13.15.19.15.19,0,0,.07.06.2.19v.05l.05.05c.13.13.28.26.45.38.04.03.1.08.2.15.13.1.25.18.35.24.03.03.1.08.2.15.1.03.21.08.35.15.07.06.13.1.2.1.1.06.23.12.4.14.1.07.17.1.2.1.1.03.23.06.4.1.16.07.23.08.2.05.13.03.3.06.5.1.13.03.17.03.1,0,.23.03.45.05.65.05.27,0,.54-.02.85-.05l.15-.05c.3-.03.58-.1.85-.19-.07.03-.03.02.1-.05.26-.1.53-.21.79-.34h.05c.23-.13.48-.29.74-.48l.05-.05c.06-.04.09-.07.11-.08.05-.04.12-.09.19-.16.13-.1.2-.16.2-.19.03,0,.1-.07.2-.19.1-.1.16-.16.2-.19l.15-.19c.1-.13.17-.22.2-.29l.15-.15c.07-.13.12-.22.15-.29l.15-.24.1-.24c.03-.07.07-.16.1-.29.07-.13.1-.21.1-.24.03-.03.06-.13.1-.29l.05-.24c.03-.06.05-.16.05-.29.03-.13.05-.23.05-.29v-.24c.03-.13.05-.23.05-.29V7.95c0-1.58-.58-2.91-1.74-4.01-1.13-1.13-2.51-1.69-4.13-1.69s-3.02.56-4.18,1.69c-1.13,1.09-1.69,2.43-1.69,4.01v41.24L121.23,4.47c-.77-.97-1.74-1.63-2.93-1.98-.56-.16-1.12-.24-1.67-.24-.65,0-1.29.11-1.92.34"/><path class="uuid-f3b162ba-3152-42a3-a071-a84db2a85d1c" d="M63.52,2.06c-19.81,0-35.86,15.59-35.86,34.81s15.95,34.71,35.67,34.81h.38c19.72-.1,35.67-15.65,35.67-34.81S83.33,2.06,63.52,2.06M62.82,60.34c-12.47-.34-22.78-10.07-23.45-22.16-.62-11.17,6.81-20.75,17.17-23.78.19-.06.39-.05.58.01.6.2,1.28.66,1.83,1.63,1.65,2.92,2.3,6.38-.38,9-1.01.99-2.29,1.67-3.35,2.6-.94.82-1.77,1.72-2.43,2.77-1.42,2.21-2.07,4.83-1.87,7.43.02.24.05.49.08.73.77,5.7,5.4,10.02,11.3,10.57,7.57.71,13.94-5.04,13.94-12.24,0-2.56-.84-5.09-2.38-7.17-.75-1.01-1.65-1.91-2.68-2.64-2.88-2.03-5.4-4.31-4.01-8.97.21-.7.55-1.37.95-1.99.02-.03.04-.06.06-.08.56-1,1.27-1.45,1.87-1.63.15-.05.31-.05.46,0,9.96,2.9,17.22,11.86,17.22,22.48,0,12.96-10.83,23.47-24.18,23.47-.23,0-.46,0-.7,0"/></svg>